<svg width="30" height="30" viewBox="0 0 30 30" fill="none" xmlns="http://www.w3.org/2000/svg">
<path id="Vector" d="M6.66667 15H10V18H6.66667V15ZM30 6V27C30 28.665 28.5167 30 26.6667 30H3.33333C1.48333 30 0 28.65 0 27V6C0 4.35 1.5 3 3.33333 3H5V0H8.33333V3H21.6667V0H25V3H26.6667C28.5167 3 30 4.35 30 6ZM3.33333 9H26.6667V6H3.33333V9ZM26.6667 27V12H3.33333V27H26.6667ZM20 18V15H23.3333V18H20ZM13.3333 18V15H16.6667V18H13.3333ZM6.66667 21H10V24H6.66667V21ZM20 24V21H23.3333V24H20ZM13.3333 24V21H16.6667V24H13.3333Z" fill="#36221B" fill-opacity="0.94"/>
</svg>
