<svg width="30" height="35" viewBox="0 0 30 35" fill="none" xmlns="http://www.w3.org/2000/svg">
<path id="Vector" d="M26.6667 30.8334H3.33333V12.5H26.6667M26.6667 4.16671H25V0.833374H21.6667V4.16671H8.33333V0.833374H5V4.16671H3.33333C1.48333 4.16671 0 5.66671 0 7.50004V30.8334C0 31.7174 0.351189 32.5653 0.976311 33.1904C1.60143 33.8155 2.44928 34.1667 3.33333 34.1667H26.6667C27.5507 34.1667 28.3986 33.8155 29.0237 33.1904C29.6488 32.5653 30 31.7174 30 30.8334V7.50004C30 6.61599 29.6488 5.76814 29.0237 5.14302C28.3986 4.5179 27.5507 4.16671 26.6667 4.16671ZM22.55 17.6L20.7833 15.8334L12.65 23.9667L9.11667 20.4334L7.35 22.2L12.65 27.5L22.55 17.6Z" fill="#36221B" fill-opacity="0.94"/>
</svg>
