<svg width="30" height="35" viewBox="0 0 30 35" fill="none" xmlns="http://www.w3.org/2000/svg">
<path id="Vector" d="M15 31.6667C11.9058 31.6667 8.93834 30.4375 6.75042 28.2496C4.5625 26.0617 3.33333 23.0942 3.33333 20C3.33333 16.9058 4.5625 13.9383 6.75042 11.7504C8.93834 9.5625 11.9058 8.33333 15 8.33333C18.0942 8.33333 21.0617 9.5625 23.2496 11.7504C25.4375 13.9383 26.6667 16.9058 26.6667 20C26.6667 23.0942 25.4375 26.0617 23.2496 28.2496C21.0617 30.4375 18.0942 31.6667 15 31.6667ZM26.7167 10.65L29.0833 8.28333C28.3333 7.43333 27.5833 6.66667 26.7333 5.93333L24.3667 8.33333C21.7833 6.23333 18.5333 5 15 5C11.0218 5 7.20644 6.58035 4.3934 9.3934C1.58035 12.2064 0 16.0218 0 20C0 23.9782 1.58035 27.7936 4.3934 30.6066C7.20644 33.4196 11.0218 35 15 35C23.3333 35 30 28.2833 30 20C30 16.4667 28.7667 13.2167 26.7167 10.65ZM13.3333 21.6667H16.6667V11.6667H13.3333M20 0H10V3.33333H20V0Z" fill="white"/>
</svg>
