<svg width="24" height="25" viewBox="0 0 24 25" fill="none" xmlns="http://www.w3.org/2000/svg">
<g id="lock">
<path id="Vector" d="M12 17.9762C12.5304 17.9762 13.0391 17.7855 13.4142 17.4462C13.7893 17.1068 14 16.6466 14 16.1667C14 15.1624 13.1 14.3571 12 14.3571C11.4696 14.3571 10.9609 14.5478 10.5858 14.8871C10.2107 15.2265 10 15.6868 10 16.1667C10 16.6466 10.2107 17.1068 10.5858 17.4462C10.9609 17.7855 11.4696 17.9762 12 17.9762ZM18 9.83333C18.5304 9.83333 19.0391 10.024 19.4142 10.3633C19.7893 10.7027 20 11.1629 20 11.6429V20.6905C20 21.1704 19.7893 21.6307 19.4142 21.97C19.0391 22.3094 18.5304 22.5 18 22.5H6C5.46957 22.5 4.96086 22.3094 4.58579 21.97C4.21071 21.6307 4 21.1704 4 20.6905V11.6429C4 10.6386 4.9 9.83333 6 9.83333H7V8.02381C7 6.82402 7.52678 5.67337 8.46447 4.82499C9.40215 3.97661 10.6739 3.5 12 3.5C12.6566 3.5 13.3068 3.61701 13.9134 3.84435C14.52 4.0717 15.0712 4.40492 15.5355 4.82499C15.9998 5.24507 16.3681 5.74377 16.6194 6.29262C16.8707 6.84148 17 7.42973 17 8.02381V9.83333H18ZM12 5.30952C11.2044 5.30952 10.4413 5.59549 9.87868 6.10452C9.31607 6.61355 9 7.30394 9 8.02381V9.83333H15V8.02381C15 7.30394 14.6839 6.61355 14.1213 6.10452C13.5587 5.59549 12.7956 5.30952 12 5.30952Z" fill="#C2C2C2"/>
</g>
</svg>
