<svg width="35" height="35" viewBox="0 0 35 35" fill="none" xmlns="http://www.w3.org/2000/svg">
<path id="Logo-WhatsApp" d="M29.8995 5.0925C26.6105 1.8025 22.2312 0 17.5704 0C7.96734 0 0.140704 7.7875 0.140704 17.3425C0.140704 20.405 0.949749 23.38 2.46231 26.005L0 35L9.23367 32.585C11.7839 33.9675 14.6508 34.7025 17.5704 34.7025C27.1734 34.7025 35 26.915 35 17.36C35 12.7225 33.1884 8.365 29.8995 5.0925ZM17.5704 31.7625C14.9673 31.7625 12.4171 31.0625 10.1834 29.75L9.65578 29.435L4.16834 30.87L5.62814 25.55L5.27638 25.0075C3.83417 22.715 3.0603 20.055 3.0603 17.3425C3.0603 9.3975 9.56784 2.9225 17.5528 2.9225C21.4221 2.9225 25.0628 4.4275 27.7889 7.1575C30.5327 9.8875 32.0276 13.51 32.0276 17.36C32.0628 25.305 25.5553 31.7625 17.5704 31.7625ZM25.5201 20.9825C25.0804 20.7725 22.9347 19.7225 22.5477 19.565C22.1432 19.425 21.8618 19.355 21.5628 19.775C21.2638 20.2125 20.4372 21.1925 20.191 21.4725C19.9447 21.77 19.6809 21.805 19.2412 21.5775C18.8015 21.3675 17.3945 20.895 15.7412 19.425C14.4397 18.27 13.5779 16.8525 13.3141 16.415C13.0678 15.9775 13.2789 15.75 13.5075 15.5225C13.701 15.33 13.9472 15.015 14.1583 14.77C14.3693 14.525 14.4573 14.3325 14.598 14.0525C14.7387 13.755 14.6683 13.51 14.5628 13.3C14.4573 13.09 13.5779 10.955 13.2261 10.08C12.8744 9.24 12.505 9.345 12.2412 9.3275C11.9774 9.3275 11.696 9.3275 11.397 9.3275C11.098 9.3275 10.6407 9.4325 10.2362 9.87C9.84925 10.3075 8.72362 11.3575 8.72362 13.4925C8.72362 15.6275 10.2889 17.6925 10.5 17.9725C10.7111 18.27 13.5779 22.645 17.9397 24.5175C18.9774 24.9725 19.7864 25.235 20.4196 25.4275C21.4573 25.76 22.407 25.7075 23.1633 25.6025C24.0075 25.48 25.7487 24.5525 26.1005 23.5375C26.4698 22.5225 26.4698 21.665 26.3467 21.4725C26.2236 21.28 25.9598 21.1925 25.5201 20.9825Z" fill="white"/>
</svg>
